<svg xmlns="http://www.w3.org/2000/svg" width="16" height="15" viewBox="0 0 16 15"><defs><style>.cls-1{fill:#fff;fill-rule:evenodd}</style></defs><path class="cls-1" d="M15.936.002a.164.164 0 0 0-.174-.016L.084 7.935a.16.16 0 0 0-.088.156.163.163 0 0 0 .112.14L5.07 9.796a.16.16 0 0 0 .157-.034l7.547-6.4-5.8 6.8a.16.16 0 0 0-.032.149.163.163 0 0 0 .108.107l5.824 1.759a.184.184 0 0 0 .047.007.173.173 0 0 0 .08-.021.164.164 0 0 0 .077-.1l2.911-11.9a.162.162 0 0 0-.053-.161zM8.757 12.163l-1.609-.491a.161.161 0 0 0-.209.153v3.012a.159.159 0 0 0 .117.154.158.158 0 0 0 .181-.068l1.609-2.521a.157.157 0 0 0 .016-.141.165.165 0 0 0-.105-.098z"/></svg>