<svg xmlns="http://www.w3.org/2000/svg" width="16" height="15" viewBox="0 0 16 15">
  <defs>
    <style>
      .cls-1 {
        fill: #fff;
        fill-rule: evenodd;
      }
    </style>
  </defs>
  <path class="cls-1" d="M868.436,153.533a0.164,0.164,0,0,0-.174-0.016l-15.678,7.949a0.16,0.16,0,0,0-.088.156,0.163,0.163,0,0,0,.112.14l4.962,1.565a0.16,0.16,0,0,0,.157-0.034l7.547-6.4-5.8,6.8a0.16,0.16,0,0,0-.032.149,0.163,0.163,0,0,0,.108.107l5.824,1.759a0.184,0.184,0,0,0,.047.007,0.173,0.173,0,0,0,.08-0.021,0.164,0.164,0,0,0,.077-0.1l2.911-11.9A0.162,0.162,0,0,0,868.436,153.533Zm-7.179,12.161-1.609-.491a0.161,0.161,0,0,0-.209.153v3.012a0.159,0.159,0,0,0,.117.154,0.158,0.158,0,0,0,.181-0.068l1.609-2.521a0.157,0.157,0,0,0,.016-0.141A0.165,0.165,0,0,0,861.257,165.694Z" transform="translate(-852.5 -153.531)"/>
</svg>
