<svg xmlns="http://www.w3.org/2000/svg" width="16" height="15.656" viewBox="0 0 16 15.656">
  <defs>
    <style>
      .cls-1 {
        fill: #fff;
        fill-rule: evenodd;
      }
    </style>
  </defs>
  <path class="cls-1" d="M387.3,165.3c-0.6-.042-1.29-0.076-2.033-0.1a6.866,6.866,0,0,0,1.671-2.25,1.586,1.586,0,0,0,.75.43,1.611,1.611,0,0,0,.382.047,1.579,1.579,0,0,0,.832-0.238,1.61,1.61,0,0,0,.725-1,1.628,1.628,0,0,0-.189-1.227,1.593,1.593,0,0,0-1.758-.723,8.8,8.8,0,0,0,.048-0.881,0.562,0.562,0,0,0-.559-0.565h-10.34a0.563,0.563,0,0,0-.559.565,7.746,7.746,0,0,0,2.458,5.845c-0.741.025-1.429,0.059-2.03,0.1-2.091.148-2.7,0.289-2.7,0.936s0.608,0.788,2.7.936c1.418,0.1,3.3.156,5.3,0.156s3.883-.055,5.3-0.156c2.092-.148,2.7-0.289,2.7-0.936S389.392,165.449,387.3,165.3Zm0.268-4.3s0.009,0,.013,0a0.931,0.931,0,0,1,1.285.315,0.951,0.951,0,0,1-.312,1.3,0.921,0.921,0,0,1-.707.112,0.933,0.933,0,0,1-.578-0.427,0.279,0.279,0,0,0-.04-0.044A8.381,8.381,0,0,0,387.568,161Zm-10.16-1.081h9.183c-0.22,3.044-2.195,5.435-4.592,5.435S377.628,162.964,377.408,159.92Zm3.555-2.285,0.038,0a0.452,0.452,0,0,0,.422-0.607,3.206,3.206,0,0,1,.123-2.3,2.938,2.938,0,0,0,.572-2.369,1.08,1.08,0,0,0-.665-0.676,0.453,0.453,0,0,0-.557.305,0.449,0.449,0,0,0,.283.557,0.221,0.221,0,0,1,.1.126,2.061,2.061,0,0,1-.483,1.565l-0.022.036c-0.045.075-.093,0.153-0.146,0.234-0.681,1.056-.885,1.887-0.606,2.47A1.207,1.207,0,0,0,380.963,157.635Zm2.385,0.084h0.031a0.425,0.425,0,0,0,.4-0.57,1.818,1.818,0,0,1,.064-1.286,1.908,1.908,0,0,0,.363-1.583,0.81,0.81,0,0,0-.5-0.5,0.425,0.425,0,0,0-.489.612,0.423,0.423,0,0,0,.249.2,0.322,0.322,0,0,1-.046-0.017,1.171,1.171,0,0,1-.281.827l-0.026.043c-0.024.04-.05,0.082-0.078,0.125a1.752,1.752,0,0,0-.382,1.661A0.883,0.883,0,0,0,383.348,157.719Z" transform="translate(-374 -151.688)"/>
</svg>
